<svg width="666" height="749" viewBox="0 0 666 749" fill="none" xmlns="http://www.w3.org/2000/svg">
<path d="M24.4475 290.238C20.1273 290.276 15.8736 289.2 12.1185 287.117C9.36424 285.609 6.94637 283.58 5.00639 281.149C3.06641 278.719 1.64328 275.936 0.82027 272.963C-0.00273972 269.99 -0.209102 266.887 0.213258 263.836C0.635619 260.784 1.67822 257.845 3.28006 255.191C34.1506 204.977 128.075 87.7749 333.025 87.7749C421.842 87.7749 499.739 110.51 564.442 155.325C617.697 192.104 647.543 233.736 661.762 253.787C663.565 256.314 664.831 259.168 665.486 262.179C666.14 265.191 666.17 268.3 665.573 271.323C664.977 274.346 663.765 277.222 662.011 279.781C660.256 282.341 657.994 284.533 655.357 286.228C649.968 289.7 643.403 290.99 637.054 289.825C630.706 288.659 625.072 285.131 621.348 279.986C595.617 243.925 517.16 134.197 333.025 134.197C153.294 134.197 72.0343 235.171 45.567 278.473C43.4404 282.089 40.3616 285.086 36.6488 287.154C32.936 289.222 28.7239 290.287 24.4475 290.238Z" fill="#EAEAEA"/>
<path d="M436.285 748.999C434.241 749.023 432.203 748.797 430.217 748.328C281.548 712.438 226.035 567.601 223.778 561.578L223.425 560.252C222.208 556.07 192.379 456.75 238.172 398.577C259.164 372.05 291.091 358.444 333.25 358.444C372.446 358.444 400.723 370.318 420.161 394.895C436.173 414.962 442.578 439.71 448.774 463.553C461.792 513.205 471.191 539.28 525.294 541.964C549.056 543.134 564.667 529.589 573.521 518.058C597.459 486.616 601.622 435.356 583.577 390.104C560.392 331.698 478.108 221.58 333.026 221.58C271.092 221.58 214.187 240.976 168.553 277.427C130.782 307.621 100.856 350.252 86.4452 394.068C59.7216 475.646 94.7713 603.881 95.1075 605.051C95.9259 608.035 96.1228 611.149 95.6866 614.209C95.2505 617.269 94.1901 620.213 92.568 622.867C90.9458 625.521 88.7948 627.832 86.2418 629.663C83.6888 631.494 80.7854 632.808 77.7028 633.528C71.4753 635.142 64.8468 634.315 59.2379 631.223C53.629 628.131 49.4861 623.021 47.6969 616.988C46.0957 611.136 8.66029 474.367 39.5309 380.087C73.1555 277.926 176.927 174.939 333.074 174.939C405.238 174.939 473.416 198.845 530.322 243.988C574.386 279.097 610.38 326.252 629.21 373.392C653.148 433.577 646.727 501.128 612.894 545.256C590.35 574.685 558.246 590.071 522.684 588.401C430.041 583.876 413.388 520.851 401.251 474.881C388.762 427.726 380.772 404.991 333.074 404.991C306.878 404.991 288.481 412.013 277.033 426.556C261.421 446.451 260.204 477.55 261.934 500.113C263.069 515.834 265.804 531.405 270.1 546.598C273.91 555.96 323.531 674.552 442.37 703.247C445.441 703.957 448.337 705.254 450.89 707.063C453.443 708.872 455.602 711.158 457.241 713.787C458.879 716.417 459.965 719.337 460.436 722.379C460.907 725.421 460.753 728.523 459.982 731.507C458.532 736.543 455.431 740.978 451.153 744.137C446.874 747.295 441.653 749.003 436.285 748.999Z" fill="#EAEAEA"/>
<path d="M245.457 738.292C242.125 738.299 238.825 737.652 235.755 736.389C232.685 735.126 229.908 733.274 227.588 730.943C168.088 670.087 134.432 602.037 121.767 516.948V516.496C114.657 460.165 125.065 380.412 176.062 325.579C213.706 285.118 266.624 264.552 333.073 264.552C411.659 264.552 473.416 300.16 511.924 367.367C539.864 416.192 545.404 464.846 545.548 466.843C545.841 469.923 545.508 473.028 544.568 475.982C543.627 478.936 542.098 481.68 540.068 484.057C538.038 486.434 535.546 488.398 532.736 489.835C529.926 491.273 526.853 492.156 523.692 492.434C517.315 493.108 510.921 491.312 505.892 487.432C500.862 483.552 497.6 477.9 496.809 471.696C492.591 442.503 482.898 414.316 468.212 388.542C438.366 337.22 392.957 311.13 332.897 311.13C281.019 311.13 240.429 326.344 212.505 356.382C172.251 399.683 164.47 466.391 169.994 510.519C181.09 585.762 210.76 645.619 263.15 699.11C265.337 701.327 267.043 703.95 268.169 706.822C269.295 709.695 269.817 712.759 269.703 715.832C269.59 718.905 268.843 721.924 267.508 724.71C266.174 727.496 264.278 729.993 261.933 732.051C257.418 736.039 251.551 738.262 245.457 738.292Z" fill="#EAEAEA"/>
<path d="M519.561 671.257C467.522 671.257 423.282 657.214 387.88 629.298C316.756 573.451 308.782 482.494 308.43 478.656C307.929 472.355 310.017 466.118 314.234 461.318C318.452 456.517 324.453 453.546 330.919 453.057C337.384 452.569 343.784 454.604 348.71 458.714C353.636 462.824 356.685 468.672 357.186 474.973C357.362 476.315 364.471 550.716 419.295 593.564C451.735 618.812 495.095 628.83 548.526 622.978C554.912 622.223 561.344 623.963 566.418 627.817C571.492 631.67 574.793 637.325 575.602 643.544C575.951 646.617 575.67 649.726 574.773 652.691C573.877 655.656 572.383 658.418 570.38 660.814C568.377 663.211 565.904 665.195 563.106 666.65C560.307 668.106 557.24 669.003 554.082 669.291C542.623 670.594 531.097 671.25 519.561 671.257ZM560.679 51.1659C540.376 38.2925 468.387 0 333.024 0C190.936 0 118.771 42.3027 102.808 53.0539C101.753 53.6846 100.766 54.4165 99.8616 55.2385C99.7661 55.3285 99.6417 55.3837 99.5093 55.3946C96.9601 57.5636 94.9147 60.2373 93.5093 63.2374C92.104 66.2376 91.3711 69.4952 91.3594 72.7931C91.4032 75.8846 92.0725 78.9372 93.329 81.7762C94.5855 84.6151 96.4046 87.1844 98.6818 89.3371C100.959 91.4897 103.65 93.1832 106.6 94.3206C109.55 95.4579 112.701 96.0168 115.873 95.9652C120.958 95.9619 125.919 94.4427 130.092 91.6117C130.78 91.1124 192.89 46.6407 333.072 46.6407C473.255 46.6407 535.7 90.9563 536.373 91.284C540.636 94.3647 545.813 96.0081 551.12 95.9652C554.294 96.0127 557.447 95.4486 560.398 94.3055C563.348 93.1624 566.038 91.4626 568.313 89.3038C570.588 87.145 572.402 84.5697 573.653 81.7256C574.904 78.8816 575.566 75.8248 575.602 72.7307C575.603 68.0961 574.183 63.5668 571.524 59.7243C568.865 55.8819 565.088 52.9015 560.679 51.1659Z" fill="#EAEAEA"/>
</svg>
