<svg xmlns="http://www.w3.org/2000/svg" viewBox="0 0 713.77 888.6"><defs><style>.cls-1{fill:#fff;}.cls-2{fill:#fff;}</style></defs><g id="Layer_2" data-name="Layer 2"><g id="Layer_1-2" data-name="Layer 1"><path class="cls-1" d="M534.78,568.9c-46.91,71.94-147,76.1-147,76.1L297.1,658.55s-6.26,130.32-131.36,165.77S79.22,687.75,79.22,687.75s-38.16,6.55-65.69,31.31a4.75,4.75,0,0,1-7.71-4.9l3.87-13.23.1.19s16.39-14.86,40.38-19c-14.76-1.23-29,4.06-37.3,7.95l2.45-8.37,25.32-8h-23l7.93-27.11a4.72,4.72,0,0,1,1.8-2.54c7.43-5.31,43.81-30.63,64.33-33.43,22.93-3.13,30.19,9.19,17.07,67.77C96.35,734,129.26,757.59,175.13,742s83.39-41.7,83.39-41.7l-2.09-34.4L267.9,652.3s-29.19,15.64-54.21,6.25-12.5-37.52,0-63.58,26.06-50,33.37-50,17.23-2.09,37.8,15.64,15.37,80.27,15.37,80.27,6.82-29.8,2.83-54.79c8-.5,47-2.51,64-7,16.24-4.3,32.49.52,54-30a2.72,2.72,0,0,1,4.93,1.52c.42,18.22-21.4,65.87-21.4,65.87s15.51-8.87,30.51-51.87c10.49-5,66-18,85-30a96.43,96.43,0,0,0-4.49-20s14.86-14.54,19.18-29c0,0-22.94,38.58-61.51,34.4s-8.33-58.37-8.33-58.37l21.88-40.67s16.68-31.27,43.79-9.38S581.69,497,534.78,568.9Z"/><path class="cls-1" d="M677.89,708.35c-41.55,47.65-82.5,42.15-82.5,42.15s-2.74,21-25,57.45c-50.73,78.21-121,80.65-147.27,80.65s-95.94.62-80.67-15.89c24.72-26.7,92.89-38.49,141.16-61.09s70.88-39.72,70.88-39.72l-1.83-12.24s-37.89,6.12-48.88-11,3.66-44,19.55-74.54,22.6-37.89,48.27-26.29,28.12,68.44,28.12,86.17c7.33-14.06,3.66-35.44,0-55.61,48.27-6.11,65.38-19.55,65.38-19.55l-14.67-49.5,21.64-33a82,82,0,0,1,5.63,18.54A65.48,65.48,0,0,0,675,571.72l4.54-6.93,6.47,20.55V554.92l10.78-16.45C723.72,578.79,719.44,660.68,677.89,708.35Z"/><path class="cls-1" d="M364.93,408.44a4.56,4.56,0,0,1-.76,2.82L328.88,464.6a4.64,4.64,0,0,1-8.5-2.23l-18.2-254.71a4.58,4.58,0,0,1,1-3.27c.95-1.15,2.43-3,4.33-5.39l6,37.33-2.29-42.15c2.7-3.47,5.83-7.62,9.16-12.22L325,208.73l-1.47-31.07c6.1-8.59,12.67-18.45,18.48-28.45a4.64,4.64,0,0,1,8.67,2Z"/><path class="cls-1" d="M238.7,429.62a246.08,246.08,0,0,0,38-26.22,146.32,146.32,0,0,1-5.13,17.11,98.15,98.15,0,0,1-20,13.29A107.26,107.26,0,0,0,269,427c-7.43,17.53-19.2,35.33-37.07,49-50.66,38.85-95,30.66-108.53,26.79a6.23,6.23,0,0,1-4.51-5.53L98,203.88a3.83,3.83,0,0,1,.46-2.1L107,186.35l9.33,36.55-5.67-43.15,22.66-40.9a3.75,3.75,0,0,1,7,1.58L157.43,416a6.19,6.19,0,0,0,6.57,5.81c13.56-.85,46-3.49,61.87-9.82,20.31-8.12,36.56-14.22,46.72-45.71,4.8-14.9,9.61-1.59,6.88,21.53C275.44,393.77,258.11,418.26,238.7,429.62Z"/><rect class="cls-2" x="196.45" y="251.13" width="77.96" height="55.58" rx="4.37" transform="translate(-129.57 279.63) rotate(-49.94)"/><rect class="cls-2" x="472.98" y="283.67" width="77.96" height="55.58" rx="4.37" transform="translate(-55.9 502.89) rotate(-49.94)"/><path class="cls-2" d="M59,497.6l28.63-34.06a4.83,4.83,0,0,0-.58-6.81L51.89,427.19a4.83,4.83,0,0,0-6.81.59L1.13,480.05a4.84,4.84,0,0,0,.59,6.81L31,511.51a4.83,4.83,0,0,1,.59,6.81L3,552.38a4.83,4.83,0,0,0,.59,6.81l35.14,29.54a4.83,4.83,0,0,0,6.81-.59l43.95-52.27a4.83,4.83,0,0,0-.59-6.81L59.58,504.41A4.83,4.83,0,0,1,59,497.6Z"/><path class="cls-2" d="M654.41,458,683.05,424a4.84,4.84,0,0,0-.59-6.81l-35.14-29.55a4.84,4.84,0,0,0-6.81.59l-44,52.28a4.83,4.83,0,0,0,.58,6.81L626.46,472a4.83,4.83,0,0,1,.59,6.81l-28.63,34.06a4.83,4.83,0,0,0,.59,6.81l35.14,29.54a4.83,4.83,0,0,0,6.81-.59l43.95-52.27a4.83,4.83,0,0,0-.59-6.81L655,464.85A4.83,4.83,0,0,1,654.41,458Z"/><path class="cls-1" d="M448.22,693.09l-6.15,12.65c-7.83-.61-26.29-.9-41.72,7.45,15.76-3.86,30.33-2,38.28-.37l-3,6.14H412.9l19.73,6.2-16.86,34.69a3.89,3.89,0,0,1-2.86,2.16l-133.3,23.51a4,4,0,0,1-4.19-5.7l2.35-4.53c5.09-.95,20.57-4.58,31.17-15a69.76,69.76,0,0,1-27.83,8.57l27.77-53.61a4,4,0,0,1,2.75-2.06l132.31-25.68A3.93,3.93,0,0,1,448.22,693.09Z"/><path class="cls-1" d="M369.8,4.17A3.15,3.15,0,0,0,365,.58c-15.08,10.51-48.13,36.32-60,67.87-7.41,14.47,8.72,22.85,17.26,26.14a2.25,2.25,0,0,1,.22,4.08l-39.4,20.77a3,3,0,0,0,1.05,5.7c13.73,1.61,41.43,1.23,67.94-20.92,33.56-28,8.44-45-9.23-50.75a2.68,2.68,0,0,1-.65-4.74L357.85,38a3.2,3.2,0,0,0,1.2-1.6Z"/></g></g></svg>