<svg width="725" height="375" viewBox="0 0 725 375" fill="none" xmlns="http://www.w3.org/2000/svg">
<path d="M-0.000193078 1.96595L1.01141 374.508L86.9283 307.844C125.106 278.145 124.975 230.159 86.6373 200.667L84.55 199.118C79.3317 195.111 79.3139 188.57 84.5103 184.481C89.7763 180.445 98.2472 180.422 103.466 184.429L219.106 273.225C237.266 287.169 266.705 287.089 284.789 273.047C302.943 259.004 302.881 236.271 284.652 222.326L117.802 94.1549C112.862 90.4152 112.845 84.303 117.764 80.483C122.615 76.7167 130.53 76.6952 135.47 80.4349L248.118 166.987C280.333 191.67 332.338 191.529 364.349 166.671C396.43 141.813 396.32 101.602 364.106 76.9188L290.422 20.3396L334.916 15.5006L537.39 170.973C560.421 188.711 597.776 188.61 620.779 170.747C643.713 152.884 643.635 124.039 620.604 106.354C609.68 97.9664 561.254 60.7812 554.226 55.3851C549.704 51.9124 549.688 46.2291 554.261 42.678L554.469 42.5166C558.834 39.127 565.986 39.1076 570.369 42.4735L591.312 58.555C616.57 77.949 657.535 77.8377 682.756 58.3067L723.997 0" fill="#03847B" fill-opacity="0.4"/>
</svg>
