<svg width="724" height="373" viewBox="0 0 724 373" fill="none" xmlns="http://www.w3.org/2000/svg">
<path d="M724 372.543V-0.000244141L637.902 66.4296C599.644 96.0254 599.644 144.011 637.902 173.607L639.985 175.162C645.193 179.183 645.193 185.724 639.985 189.799C634.708 193.82 626.237 193.82 621.03 189.799L505.632 100.69C487.509 86.6963 458.07 86.6963 439.948 100.69C421.756 114.684 421.756 137.417 439.948 151.41L606.449 280.034C611.379 283.788 611.379 289.9 606.449 293.706C601.589 297.46 593.673 297.46 588.743 293.706L476.331 206.849C444.183 182.079 392.177 182.079 360.099 206.849C327.951 231.619 327.951 271.831 360.099 296.602L433.629 353.381L389.122 358.099L187.071 202.077C164.088 184.277 126.733 184.277 103.681 202.077C80.6986 219.878 80.6986 248.723 103.681 266.47C114.582 274.887 162.908 312.204 169.921 317.619C174.434 321.104 174.434 326.787 169.851 330.326L169.643 330.487C165.269 333.865 158.117 333.865 153.743 330.487L132.843 314.348C107.639 294.886 66.6731 294.886 41.3993 314.348L0 372.543" fill="#F3FFFD" fill-opacity="0.1"/>
</svg>
