<svg width="235" height="258" viewBox="0 0 235 258" fill="none" xmlns="http://www.w3.org/2000/svg">
<path d="M3.37217 -103.624C4.33045 -105.019 5.48968 -106.267 6.82293 -107.338C107.239 -187.084 252.015 -140.925 258.011 -138.971L259.263 -138.443C263.258 -136.849 358.596 -99.629 384.17 -35.0703C395.779 -5.5572 391.612 23.8827 371.443 52.3765C352.692 78.8682 329.472 91.1191 300.113 90.0579C276.074 89.2863 252.81 79.3171 230.384 69.73C183.63 49.842 157.851 41.1302 129.777 76.1464C117.455 91.5299 121.041 109.906 126.218 122.553C140.43 156.897 180.277 189.325 225.846 203.273C284.61 221.347 413.855 229.353 483.261 131.297C512.89 89.4378 524.282 39.7713 516.36 -12.1301C509.785 -55.103 489.306 -99.9583 460.436 -135.012C406.634 -200.205 285.199 -250.602 284.083 -251.051C281.255 -252.222 278.62 -253.888 276.331 -255.951C274.042 -258.013 272.147 -260.431 270.756 -263.06C269.366 -265.69 268.509 -268.479 268.236 -271.262C267.962 -274.046 268.279 -276.767 269.165 -279.267C270.827 -284.408 274.674 -288.41 279.881 -290.415C285.088 -292.419 291.241 -292.267 297.021 -289.991C302.563 -287.692 432.106 -233.976 494.291 -158.643C561.591 -76.8949 596.007 52.7409 521.307 158.275C486.784 207.049 434.656 239.317 370.586 251.697C320.849 261.195 265.14 258.278 217.656 243.77C157.08 225.178 105.015 181.812 85.1824 133.45C71.9467 101.211 74.7468 70.6242 93.1223 47.5536C141.136 -12.447 200.545 12.7103 243.872 31.0659C288.337 49.8686 310.716 57.6035 333.535 25.3653C346.066 7.66086 349.136 -8.83017 342.743 -24.9698C333.972 -47.0154 309.171 -65.805 289.927 -77.672C276.552 -85.987 262.534 -93.1344 248.078 -99.009C238.613 -101.842 118.079 -136.82 37.8045 -73.0798C35.7563 -71.4135 33.3121 -70.2053 30.614 -69.5252C27.9159 -68.8451 25.0176 -68.7068 22.0876 -69.1183C19.1576 -69.5297 16.2543 -70.4828 13.5462 -71.922C10.8382 -73.3613 8.37955 -75.2581 6.31302 -77.5022C2.89609 -81.392 0.759095 -86.0505 0.2281 -90.767C-0.302862 -95.4835 0.801278 -99.999 3.37217 -103.624Z" fill="#03847B"/>
</svg>
