<svg width="393" height="399" viewBox="0 0 393 399" fill="none" xmlns="http://www.w3.org/2000/svg">
<g filter="url(#filter0_d_146_3594)">
<path d="M13.6076 420.242C11.2583 418.674 9.33222 416.526 7.94414 413.925C6.5561 411.323 5.7345 408.323 5.52839 405.102C0.887709 321.52 18.836 243.587 61.9832 160.036L62.2601 159.623C91.7221 104.913 147.842 37.1244 217.282 11.226C268.531 -7.87872 318.357 -1.63139 365.123 29.7553C420.43 66.8748 442.107 128.507 428.088 207.963C417.879 265.671 392.01 312.642 390.889 314.531C389.211 317.476 387.077 320.15 384.607 322.399C382.138 324.647 379.383 326.426 376.5 327.635C373.617 328.843 370.662 329.456 367.805 329.439C364.948 329.422 362.245 328.775 359.85 327.536C354.949 325.139 351.549 320.481 350.383 314.568C349.217 308.655 350.379 301.962 353.618 295.933C368.511 267.328 378.935 237.052 384.369 206.62C394.765 145.736 378.769 100.503 336.5 72.1339C299.99 47.6295 262.115 42.3266 224.084 56.5198C169.261 76.9807 122.97 134.117 99.8582 176.955C61.6309 250.789 45.8889 319.371 50.0326 392.88C50.2151 395.934 49.8118 399.131 48.8465 402.282C47.8813 405.432 46.3738 408.472 44.4138 411.219C42.4537 413.967 40.0812 416.367 37.437 418.277C34.7929 420.186 31.9311 421.566 29.022 422.335C23.4042 423.838 17.9149 423.093 13.6076 420.242Z" fill="#03847B"/>
</g>
<defs>
<filter id="filter0_d_146_3594" x="0.816406" y="0.41695" width="435.417" height="430.677" filterUnits="userSpaceOnUse" color-interpolation-filters="sRGB">
<feFlood flood-opacity="0" result="BackgroundImageFix"/>
<feColorMatrix in="SourceAlpha" type="matrix" values="0 0 0 0 0 0 0 0 0 0 0 0 0 0 0 0 0 0 127 0" result="hardAlpha"/>
<feOffset dy="4"/>
<feGaussianBlur stdDeviation="2"/>
<feComposite in2="hardAlpha" operator="out"/>
<feColorMatrix type="matrix" values="0 0 0 0 0 0 0 0 0 0 0 0 0 0 0 0 0 0 0.25 0"/>
<feBlend mode="normal" in2="BackgroundImageFix" result="effect1_dropShadow_146_3594"/>
<feBlend mode="normal" in="SourceGraphic" in2="effect1_dropShadow_146_3594" result="shape"/>
</filter>
</defs>
</svg>
